PathFileType	4	(X/Y/Z)	/Users/itak/Documents/Research/Walk-IL/dataset/trc/00049_00006.trc
DataRate	CameraRate	NumFrames	NumMarkers	Units	OrigDataRate	OrigDataStartFrame	OrigNumFrames
100.000000	100.000000	4	53	mm	100.000000	249	499
Frame#	Time	RPSI			LPSI			L3			STRN			T10			C7			CLAV			RBAK			LBAK			LSHO			LUPA			LAEL			LAOL			LWTS			LWPS			LFRA			LIFD			LHPS			LHTS			RSHO			RUPA			RAEL			RAOL			RWTS			RWPS			RFRA			RIFD			RHTS			RHPS			RBHD			LFHD			RFHD			LBHD			LHIP			RHIP			RASI			LASI			LKNE			LTHI			LANK			LTIP			LTOE			LMT1			LMT5			LHEE			RKNE			RTHI			RANK			RTIP			RTOE			RMT1			RMT5			RHEE			
		X1	Y1	Z1	X2	Y2	Z2	X3	Y3	Z3	X4	Y4	Z4	X5	Y5	Z5	X6	Y6	Z6	X7	Y7	Z7	X8	Y8	Z8	X9	Y9	Z9	X10	Y10	Z10	X11	Y11	Z11	X12	Y12	Z12	X13	Y13	Z13	X14	Y14	Z14	X15	Y15	Z15	X16	Y16	Z16	X17	Y17	Z17	X18	Y18	Z18	X19	Y19	Z19	X20	Y20	Z20	X21	Y21	Z21	X22	Y22	Z22	X23	Y23	Z23	X24	Y24	Z24	X25	Y25	Z25	X26	Y26	Z26	X27	Y27	Z27	X28	Y28	Z28	X29	Y29	Z29	X30	Y30	Z30	X31	Y31	Z31	X32	Y32	Z32	X33	Y33	Z33	X34	Y34	Z34	X35	Y35	Z35	X36	Y36	Z36	X37	Y37	Z37	X38	Y38	Z38	X39	Y39	Z39	X40	Y40	Z40	X41	Y41	Z41	X42	Y42	Z42	X43	Y43	Z43	X44	Y44	Z44	X45	Y45	Z45	X46	Y46	Z46	X47	Y47	Z47	X48	Y48	Z48	X49	Y49	Z49	X50	Y50	Z50	X51	Y51	Z51	X52	Y52	Z52	X53	Y53	Z53	

250	2.49	251.4231872558594	1019.839904785156	-148.7776336669922	244.9298248291016	1000.200622558594	-324.0906372070312	257.8744506835938	1076.372314453125	-238.5150451660156	534.973876953125	1242.346923828125	-248.0515899658203	261.7928771972656	1209.064331054688	-238.3520355224609	348.4922180175781	1467.439331054688	-252.4683227539062	518.0458984375	1359.722900390625	-255.6617126464844	275.5715942382812	1339.71826171875	-168.1893615722656	319.281494140625	1428.958129882812	-351.0595703125	419.0006408691406	1419.786499023438	-427.4773559570312	382.8743591308594	1294.9091796875	-501.240478515625	377.2220153808594	1078.821533203125	-521.0577392578125	323.0778503417969	1070.317749023438	-430.6631164550781	482.0756225585938	849.6828002929688	-446.4738464355469	417.86962890625	829.79150390625	-497.68017578125	398.3058471679688	968.9031372070312	-522.3551635742188	506.8449096679688	668.8023071289062	-410.7245788574219	456.5067443847656	751.8837890625	-489.27294921875	509.6067504882812	769.8386840820312	-444.7477111816406	418.2526245117188	1430.586303710938	-79.64253234863281	407.1496276855469	1364.575805664062	-12.74302196502686	377.9705505371094	1104.235473632812	45.33412551879883	386.3837890625	1073.784790039062	-49.00742721557617	541.5430908203125	866.531982421875	4.465476036071777	478.6819458007812	843.302490234375	60.30580902099609	397.0178527832031	1022.836181640625	57.58293914794922	569.60791015625	683.468017578125	-17.37784576416016	580.8521728515625	770.0360717773438	3.21340274810791	529.969970703125	759.2216796875	60.82363510131836	385.9519958496094	1633.040649414062	-318.2618713378906	553.28564453125	1667.846923828125	-186.0092620849609	559.8270874023438	1676.540649414062	-312.1941833496094	389.5804443359375	1617.52734375	-181.2920837402344	350.5513305664062	934.0460815429688	-412.6269226074219	308.8941650390625	945.0984497070312	-68.26277923583984	435.4187927246094	951.2161254882812	-85.20812225341797	457.4429626464844	939.69677734375	-349.8663940429688	567.6410522460938	517.2575073242188	-350.6900024414062	493.1668395996094	636.41015625	-398.5769958496094	575.6513671875	45.51713562011719	-390.7789001464844	572.6007080078125	267.2035217285156	-385.142578125	775.7022094726562	79.89781188964844	-378.8162841796875	728.0831909179688	69.48033905029297	-327.045654296875	678.09619140625	55.82851028442383	-426.6811218261719	521.865966796875	30.98428153991699	-317.2295227050781	354.4278869628906	493.4313354492188	-87.47659301757812	378.3978576660156	762.8243408203125	-56.46522521972656	124.2220001220703	55.95497512817383	-93.61722564697266	300.9029235839844	374.4415588378906	-81.10769653320312	329.6990356445312	37.3941650390625	-152.9286193847656	267.0570983886719	43.2292594909668	-183.3814239501953	249.6280517578125	46.37133026123047	-87.4576416015625	72.03662872314453	71.56952667236328	-145.6052856445312	
251	2.5	242.9475708007812	1019.966247558594	-146.0837860107422	235.4976196289062	1000.50439453125	-321.3227844238281	249.1238708496094	1076.691040039062	-235.7715911865234	526.7299194335938	1242.172485351562	-246.0811767578125	253.2159271240234	1209.317626953125	-235.5987091064453	340.4930419921875	1467.5009765625	-250.3914337158203	509.8926696777344	1359.56201171875	-253.7928466796875	267.6497497558594	1339.938354492188	-165.71923828125	311.0152282714844	1428.98583984375	-348.877197265625	410.6219482421875	1419.535888671875	-425.4701843261719	374.2789306640625	1294.499267578125	-498.8332824707031	368.4729309082031	1078.443115234375	-518.2562866210938	314.6788940429688	1070.048095703125	-427.6173095703125	473.1094055175781	849.0045166015625	-444.2685241699219	408.65380859375	829.358642578125	-495.2418518066406	389.3518371582031	968.5287475585938	-519.7030029296875	497.6182556152344	667.9503784179688	-408.9792785644531	447.1633911132812	751.348388671875	-487.1481323242188	500.4928283691406	769.1282958984375	-442.8393859863281	410.6116943359375	1430.85400390625	-77.67362976074219	399.5608215332031	1365.067993164062	-10.59175395965576	370.4732666015625	1104.864624023438	48.46772384643555	378.5424499511719	1074.229736328125	-45.82679748535156	534.4876098632812	867.5913696289062	7.00947904586792	471.9951171875	844.0963134765625	63.09170150756836	389.7514953613281	1023.449035644531	60.77260208129883	563.3721313476562	684.7075805664062	-14.99766445159912	574.2784423828125	771.3226318359375	5.606915473937988	523.598388671875	760.2242431640625	63.35332489013672	378.0950927734375	1633.092407226562	-316.4990539550781	545.5470581054688	1667.681762695312	-184.3384399414062	552.0392456054688	1676.283325195312	-310.5031127929688	381.7607116699219	1617.639404296875	-179.5404510498047	340.7244567871094	934.3528442382812	-410.7231140136719	300.6260375976562	944.8388061523438	-65.98738861083984	427.06640625	950.8609008789062	-83.62323760986328	447.6824340820312	939.87890625	-348.3294982910156	559.107421875	518.1094360351562	-350.3417358398438	483.9405822753906	637.0087280273438	-398.0474853515625	569.9594116210938	45.61827850341797	-390.8697204589844	565.264892578125	268.0920715332031	-385.2412414550781	769.6766967773438	82.80552673339844	-379.7128295898438	722.2384033203125	72.50969696044922	-327.4764404296875	672.3182373046875	56.74384307861328	-426.9728698730469	516.3657836914062	30.68461036682129	-317.3019104003906	348.6698303222656	493.0236511230469	-86.95122528076172	370.7483825683594	762.4893188476562	-55.16798782348633	123.3165740966797	53.82257080078125	-94.62849426269531	296.6925964355469	373.2611694335938	-81.32200622558594	329.9435119628906	37.33650588989258	-152.9065704345703	266.7537231445312	42.47469329833984	-184.0869140625	248.9281768798828	46.20973968505859	-88.24615478515625	70.93708038330078	68.10183715820312	-146.8207244873047	
252	2.51	234.7131042480469	1020.091918945312	-143.3867034912109	226.2019500732422	1000.819274902344	-318.5629577636719	240.5691223144531	1077.023559570312	-233.0660705566406	518.5523071289062	1242.161376953125	-244.2793579101562	244.6992492675781	1209.60009765625	-232.9537353515625	332.4495239257812	1467.636840820312	-248.4669036865234	501.7515869140625	1359.560302734375	-252.0749816894531	259.7382202148438	1340.195556640625	-163.4015960693359	302.7186584472656	1429.073608398438	-346.8411560058594	402.2210083007812	1419.407958984375	-423.609375	365.734130859375	1294.195678710938	-496.5904235839844	359.8870544433594	1078.163940429688	-515.5787963867188	306.4447326660156	1069.866577148438	-424.7041320800781	464.3338317871094	848.4277954101562	-442.2239990234375	399.6195373535156	829.0297241210938	-492.9465026855469	380.5758666992188	968.2568969726562	-517.1790161132812	488.6141967773438	667.2023315429688	-407.4269104003906	438.0023193359375	750.917236328125	-485.1895446777344	491.5909423828125	768.5362548828125	-441.1237182617188	402.9481506347656	1431.228149414062	-75.85675811767578	391.9505004882812	1365.681274414062	-8.595951080322266	362.8590087890625	1105.664306640625	51.49372100830078	370.603271484375	1074.822631835938	-42.74502182006836	527.1674194335938	868.6949462890625	9.529170036315918	465.0590209960938	845.0145874023438	65.88499450683594	382.3215637207031	1024.226318359375	63.88250732421875	556.6716918945312	685.953857421875	-12.59775066375732	567.3448486328125	772.6089477539062	7.999776363372803	516.8742065429688	761.3047485351562	65.89678955078125	370.2560424804688	1633.296508789062	-314.8525390625	537.824951171875	1667.607055664062	-182.7607421875	544.2821655273438	1676.135131835938	-308.8993225097656	373.9385681152344	1617.88134765625	-177.9045257568359	331.2082824707031	934.7658081054688	-408.8421325683594	292.6744689941406	944.6227416992188	-63.73712539672852	419.0024108886719	950.6107788085938	-82.12982177734375	438.1091003417969	940.2034912109375	-346.8905639648438	550.9260864257812	518.9459838867188	-349.9880065917969	474.996826171875	637.6692504882812	-397.5413818359375	562.5264282226562	45.71792984008789	-391.0875549316406	557.2980346679688	268.9123840332031	-385.3844604492188	762.0045776367188	84.74816131591797	-380.8357238769531	714.773193359375	74.67915344238281	-328.134033203125	664.817626953125	57.1639518737793	-427.4425048828125	509.1201782226562	30.71380233764648	-317.4521789550781	343.1322631835938	492.7147216796875	-86.47728729248047	363.4280395507812	762.2830200195312	-53.97648239135742	122.5573272705078	51.87354278564453	-95.33223724365234	292.7113952636719	372.2111206054688	-81.51076507568359	330.1165771484375	37.31024169921875	-152.8574066162109	266.420654296875	41.81466293334961	-184.6819458007812	248.3213195800781	46.04619216918945	-88.92650604248047	69.97344970703125	64.87495422363281	-147.6480712890625	
253	2.52	226.7120819091797	1020.214172363281	-140.7040100097656	217.0605316162109	1001.12939453125	-315.826904296875	232.193603515625	1077.366577148438	-230.4162139892578	510.4356994628906	1242.30224609375	-242.645751953125	236.2501525878906	1209.914428710938	-230.4347229003906	324.3683166503906	1467.848510742188	-246.6924896240234	493.6286315917969	1359.708984375	-250.5064392089844	251.8354644775391	1340.493774414062	-161.2406616210938	294.3970947265625	1429.218872070312	-344.9536743164062	393.8010559082031	1419.390625	-421.8959350585938	357.2368774414062	1293.986938476562	-494.5128479003906	351.4588012695312	1077.974243164062	-513.04833984375	298.3657836914062	1069.757446289062	-421.9458618164062	455.7582092285156	847.9498901367188	-440.3722534179688	390.7648315429688	828.7898559570312	-490.8063049316406	371.9687194824219	968.073974609375	-514.8042602539062	479.8469848632812	666.576171875	-406.0977783203125	429.0265197753906	750.5784912109375	-483.4013977050781	482.9197998046875	768.0660400390625	-439.6282348632812	395.2650146484375	1431.695678710938	-74.18952941894531	384.3211364746094	1366.396484375	-6.755709648132324	355.1315612792969	1106.611206054688	54.4031982421875	362.5704650878906	1075.538452148438	-39.77204132080078	519.5966796875	869.8231201171875	12.01506233215332	457.876220703125	846.034912109375	68.67547607421875	374.7320251464844	1025.144775390625	66.90220642089844	549.5213623046875	687.183837890625	-10.18038558959961	560.06396484375	773.8734741210938	10.38347148895264	509.814208984375	762.4425048828125	68.45000457763672	362.4324951171875	1633.642578125	-313.3248901367188	530.1117553710938	1667.625	-181.2780914306641	536.548583984375	1676.103881835938	-307.3863220214844	366.1120300292969	1618.240478515625	-176.3867797851562	322.0112915039062	935.2720947265625	-406.9884643554688	285.0389404296875	944.4547119140625	-61.52521133422852	411.2245178222656	950.4743041992188	-80.72589111328125	428.7383117675781	940.6588134765625	-345.5463562011719	543.1740112304688	519.7681274414062	-349.5963745117188	466.416259765625	638.4064331054688	-397.0141906738281	553.0962524414062	45.85961151123047	-391.4149169921875	548.5843505859375	269.666259765625	-385.5406188964844	752.4462890625	85.67903900146484	-382.1835021972656	705.4586791992188	75.92600250244141	-329.0225219726562	655.3283081054688	57.1058235168457	-428.091064453125	499.8832092285156	31.10730934143066	-317.65478515625	337.7599487304688	492.5126953125	-86.09296417236328	356.4476013183594	762.2125244140625	-52.90647125244141	121.9149856567383	50.10338592529297	-95.79506683349609	288.8827209472656	371.3149719238281	-81.69440460205078	330.2222595214844	37.30527877807617	-152.798095703125	266.0701293945312	41.24764633178711	-185.1791381835938	247.799072265625	45.8951301574707	-89.50914001464844	69.12631988525391	61.87990570068359	-148.1743316650391	
